{"title":"Adventure.Time.S07E21.A.Kings.Ransom.HDTV.x264-W4F[rartv]","uid":13275478,"size":47832498,"categoryP":"video","categoryS":"tv_shows","magnet":"?xt=urn:btih:10bfb9a043c25d3f7cb32b5732110b39fda3cf10&amp;dn=Adventure.Time.S07E21.A.Kings.Ransom.HDTV.x264-W4F%5Brartv%5D&amp;tr=udp%3A%2F%2Ftracker.leechers-paradise.org%3A6969&amp;tr=udp%3A%2F%2Fzer0day.ch%3A1337&amp;tr=udp%3A%2F%2Fopen.demonii.com%3A1337&amp;tr=udp%3A%2F%2Ftracker.coppersurfer.tk%3A6969&amp;tr=udp%3A%2F%2Fexodus.desync.com%3A6969","seeders":0,"leechers":0,"uploader":"Dyggy42","files":3,"time":1453433250,"description":"-W4F Releasing TV since 2002-\r\n\r\nProudly Presents\r\n\r\nAdventure.Time.S07E21.A.Kings.Ransom.HDTV.x264-W4F\r\n\r\nRELEASE iNFO\r\n\r\nRelease Date    2016.01.15\r\nAir Date        2016.01.15\r\nGenre           Animation\r\n\r\nEPiSODE iNFO\r\n\r\nEnjoy!\r\n\r\nW4F GROUP NEWS\r\n\r\nW4F is one of the oldest TV scene groups, founded and supported on an\r\nethos of releasing purely for fun. We pride ourselves in releasing\r\nquality programming in a variety of formats to include reality,\r\nscripted, documentary and animation.\r\n\r\nWe are still actively interested in finding capable individuals who\r\nwould like to join the W4F family. Potential recruits will be US based\r\nand able to capture HDTV content with knowledge of digital capture\r\nmethods, e.g. using HDHomeRun, Ceton, Set-top box (STB) firewire\r\noutput.\r\n\r\nWe are also interested in recruiting those who can capture either\r\nNetflix or Amazon originals.\r\n\r\nContact email:\n\r\nW4F has nothing to do with torrents/p2p so don't ask about that!\r\n\r\nOccasionally we are also interested in hearing from site owners who\r\nare interested in affiliating W4F. Private links with archives only.\r\n\r\nGreets to all W4F/CLASSiCW4F members, both past and present. \r\n\r\nVideo\r\nID                                       : 1\r\nFormat                                   : AVC\r\nFormat/Info                              : Advanced Video Codec\r\nFormat profile                           :   \r\nFormat settings, CABAC                   : Yes\r\nFormat settings, ReFrames                : 10 frames\r\nCodec ID                                 : avc1\r\nCodec ID/Info                            : Advanced Video Coding\r\nDuration                                 : 11mn 12s\r\nBit rate                                 : 446 Kbps\r\nMaximum bit rate                         : 4 904 Kbps\r\nWidth                                    : 720 pixels\r\nHeight                                   : 404 pixels\r\nDisplay aspect ratio                     : 16:9\r\nFrame rate mode                          : Constant\r\nFrame rate                               : 23.976 (24000/1001) fps\r\nColor space                              : YUV\r\nChroma subsampling                       : 4:2:0\r\nBit depth                                : 8 bits\r\nScan type                                : Progressive\r\nBits/(Pixel*Frame)                       : 0.064\r\nStream size                              : 35.7 MiB (78%)\r\nWriting library                          : x264 core 148 r2638 7599210\r\n\r\nEncoded date                             : UTC 2016-01-16 00:53:35\r\nTagged date                              : UTC 2016-01-16 00:53:36\r\nColor range                              : Limited\r\nMatrix coefficients                      : BT.709\r\n\r\nAudio\r\nID                                       : 2\r\nFormat                                   : AAC\r\nFormat/Info                              : Advanced Audio Codec\r\nFormat profile                           : LC\r\nCodec ID                                 : 40\r\nDuration                                 : 11mn 12s\r\nBit rate mode                            : Variable\r\nBit rate                                 : 119 Kbps\r\nMaximum bit rate                         : 153 Kbps\r\nChannel(s)                               : 2 channels\r\nChannel positions                        : Front: L R\r\nSampling rate                            : 48.0 KHz\r\nFrame rate                               : 46.875 fps (1024 spf)\r\nCompression mode                         : Lossy\r\nStream size                              : 9.57 MiB (21%)\r\nLanguage                                 : English\r\nEncoded date                             : UTC 2016-01-16 00:53:36\r\nTagged date                              : UTC 2016-01-16 00:53:36\r\n\r\nText\r\nID                                       : 3\r\nFormat                                   : Timed Text\r\nCodec ID                                 : tx3g\r\nDuration                                 : 11mn 13s\r\nBit rate mode                            : Variable\r\nBit rate                                 : 142 bps\r\nStream size                              : 11.7 KiB (0%)\r\nLanguage                                 : English\r\nForced                                   : No\r\nEncoded date                             : UTC 2016-01-16 00:53:36\r\nTagged date                              : UTC 2016-01-16 00:53:36","torrent":{"xt":"urn:btih:10bfb9a043c25d3f7cb32b5732110b39fda3cf10","amp;dn":"Adventure.Time.S07E21.A.Kings.Ransom.HDTV.x264-W4F%5Brartv%5D","amp;tr":["udp%3A%2F%2Ftracker.leechers-paradise.org%3A6969","udp%3A%2F%2Fzer0day.ch%3A1337","udp%3A%2F%2Fopen.demonii.com%3A1337","udp%3A%2F%2Ftracker.coppersurfer.tk%3A6969","udp%3A%2F%2Fexodus.desync.com%3A6969"],"infoHash":"10bfb9a043c25d3f7cb32b5732110b39fda3cf10","infoHashBuffer":{"type":"Buffer","data":[16,191,185,160,67,194,93,63,124,179,43,87,50,17,11,57,253,163,207,16]},"announce":[],"urlList":[]}}